<svg width="280" height="40" viewBox="0 0 280 40" fill="none" xmlns="http://www.w3.org/2000/svg">
<path d="M130.197 40H4.729C2.122 40 0 37.872 0 35.267V4.726C0 2.12 2.122 0 4.729 0H130.197C132.803 0 135 2.12 135 4.726V35.267C135 37.872 132.803 40 130.197 40Z" fill="#A6A6A6"/>
<path d="M134.032 35.2679C134.032 37.3839 132.318 39.0979 130.198 39.0979H4.72901C2.61001 39.0979 0.890015 37.3839 0.890015 35.2679V4.72489C0.890015 2.60989 2.61001 0.889893 4.72901 0.889893H130.197C132.318 0.889893 134.031 2.60989 134.031 4.72489L134.032 35.2679Z" fill="black"/>
<path d="M30.128 19.784C30.099 16.561 32.767 14.993 32.889 14.92C31.378 12.717 29.036 12.416 28.213 12.392C26.246 12.185 24.338 13.569 23.336 13.569C22.314 13.569 20.771 12.412 19.108 12.446C16.968 12.479 14.966 13.718 13.868 15.642C11.602 19.565 13.292 25.33 15.463 28.501C16.549 30.054 17.818 31.788 19.479 31.727C21.104 31.66 21.711 30.691 23.672 30.691C25.615 30.691 26.185 31.727 27.879 31.688C29.623 31.66 30.721 30.128 31.769 28.561C33.024 26.781 33.528 25.028 33.548 24.938C33.507 24.924 30.161 23.647 30.128 19.784Z" fill="white"/>
<path d="M26.928 10.306C27.802 9.21304 28.4 7.72604 28.234 6.21704C26.969 6.27304 25.387 7.09204 24.476 8.16104C23.67 9.10304 22.95 10.647 23.136 12.099C24.557 12.205 26.016 11.382 26.928 10.306Z" fill="white"/>
<path d="M53.645 31.504H51.374L50.13 27.595H45.806L44.621 31.504H42.41L46.694 18.196H49.34L53.645 31.504ZM49.755 25.955L48.63 22.48C48.511 22.125 48.288 21.289 47.959 19.973H47.919C47.788 20.539 47.577 21.375 47.287 22.48L46.182 25.955H49.755Z" fill="white"/>
<path d="M64.662 26.5879C64.662 28.2199 64.221 29.5099 63.339 30.4569C62.549 31.2999 61.568 31.7209 60.397 31.7209C59.133 31.7209 58.225 31.2669 57.672 30.3589H57.632V35.4139H55.5V25.0669C55.5 24.0409 55.473 22.9879 55.421 21.9079H57.296L57.415 23.4289H57.455C58.166 22.2829 59.245 21.7109 60.693 21.7109C61.825 21.7109 62.77 22.1579 63.526 23.0529C64.284 23.9489 64.662 25.1269 64.662 26.5879ZM62.49 26.6659C62.49 25.7319 62.28 24.9619 61.858 24.3559C61.397 23.7239 60.778 23.4079 60.002 23.4079C59.476 23.4079 58.998 23.5839 58.571 23.9309C58.143 24.2809 57.863 24.7379 57.732 25.3039C57.666 25.5679 57.633 25.7839 57.633 25.9539V27.5539C57.633 28.2519 57.847 28.8409 58.275 29.3219C58.703 29.8029 59.259 30.0429 59.943 30.0429C60.746 30.0429 61.371 29.7329 61.818 29.1149C62.266 28.4959 62.49 27.6799 62.49 26.6659Z" fill="white"/>
<path d="M75.699 26.5879C75.699 28.2199 75.258 29.5099 74.375 30.4569C73.586 31.2999 72.605 31.7209 71.434 31.7209C70.17 31.7209 69.262 31.2669 68.71 30.3589H68.67V35.4139H66.538V25.0669C66.538 24.0409 66.511 22.9879 66.459 21.9079H68.334L68.453 23.4289H68.493C69.203 22.2829 70.282 21.7109 71.731 21.7109C72.862 21.7109 73.807 22.1579 74.565 23.0529C75.32 23.9489 75.699 25.1269 75.699 26.5879ZM73.527 26.6659C73.527 25.7319 73.316 24.9619 72.894 24.3559C72.433 23.7239 71.816 23.4079 71.039 23.4079C70.512 23.4079 70.035 23.5839 69.607 23.9309C69.179 24.2809 68.9 24.7379 68.769 25.3039C68.704 25.5679 68.67 25.7839 68.67 25.9539V27.5539C68.67 28.2519 68.884 28.8409 69.31 29.3219C69.738 29.8019 70.294 30.0429 70.98 30.0429C71.783 30.0429 72.408 29.7329 72.855 29.1149C73.303 28.4959 73.527 27.6799 73.527 26.6659Z" fill="white"/>
<path d="M88.039 27.772C88.039 28.904 87.646 29.825 86.857 30.536C85.99 31.313 84.783 31.701 83.232 31.701C81.8 31.701 80.652 31.425 79.783 30.872L80.277 29.095C81.213 29.661 82.24 29.945 83.359 29.945C84.162 29.945 84.787 29.763 85.236 29.401C85.683 29.039 85.906 28.553 85.906 27.947C85.906 27.407 85.722 26.952 85.353 26.583C84.986 26.214 84.373 25.871 83.517 25.554C81.187 24.685 80.023 23.412 80.023 21.738C80.023 20.644 80.431 19.747 81.248 19.049C82.062 18.35 83.148 18.001 84.506 18.001C85.717 18.001 86.723 18.212 87.526 18.633L86.993 20.371C86.243 19.963 85.395 19.759 84.446 19.759C83.696 19.759 83.11 19.944 82.69 20.312C82.335 20.641 82.157 21.042 82.157 21.517C82.157 22.043 82.36 22.478 82.768 22.82C83.123 23.136 83.768 23.478 84.704 23.847C85.849 24.308 86.69 24.847 87.231 25.465C87.77 26.081 88.039 26.852 88.039 27.772Z" fill="white"/>
<path d="M95.088 23.5081H92.738V28.1671C92.738 29.3521 93.152 29.9441 93.982 29.9441C94.363 29.9441 94.679 29.9111 94.929 29.8451L94.988 31.4641C94.568 31.6211 94.015 31.7001 93.33 31.7001C92.488 31.7001 91.83 31.4431 91.355 30.9301C90.882 30.4161 90.644 29.5541 90.644 28.3431V23.5061H89.244V21.9061H90.644V20.1491L92.738 19.5171V21.9061H95.088V23.5081Z" fill="white"/>
<path d="M105.691 26.6269C105.691 28.1019 105.269 29.3129 104.427 30.2599C103.544 31.2349 102.372 31.7209 100.911 31.7209C99.503 31.7209 98.382 31.2539 97.546 30.3199C96.71 29.3859 96.292 28.2069 96.292 26.7859C96.292 25.2989 96.722 24.0809 97.585 23.1339C98.446 22.1859 99.608 21.7119 101.069 21.7119C102.477 21.7119 103.61 22.1789 104.465 23.1139C105.283 24.0209 105.691 25.1919 105.691 26.6269ZM103.479 26.6959C103.479 25.8109 103.29 25.0519 102.907 24.4189C102.46 23.6529 101.821 23.2709 100.993 23.2709C100.136 23.2709 99.485 23.6539 99.038 24.4189C98.655 25.0529 98.466 25.8239 98.466 26.7359C98.466 27.6209 98.655 28.3799 99.038 29.0119C99.499 29.7779 100.143 30.1599 100.974 30.1599C101.788 30.1599 102.427 29.7699 102.888 28.9919C103.281 28.3469 103.479 27.5799 103.479 26.6959Z" fill="white"/>
<path d="M112.621 23.7829C112.41 23.7439 112.185 23.7239 111.949 23.7239C111.199 23.7239 110.619 24.0069 110.211 24.5739C109.856 25.0739 109.678 25.7059 109.678 26.4689V31.5039H107.547L107.567 24.9299C107.567 23.8239 107.54 22.8169 107.487 21.9089H109.344L109.422 23.7449H109.481C109.706 23.1139 110.061 22.6059 110.547 22.2249C111.022 21.8819 111.535 21.7109 112.088 21.7109C112.285 21.7109 112.463 21.7249 112.621 21.7499V23.7829Z" fill="white"/>
<path d="M122.156 26.2519C122.156 26.6339 122.131 26.9559 122.078 27.2189H115.682C115.707 28.1669 116.016 28.8919 116.61 29.3919C117.149 29.8389 117.846 30.0629 118.702 30.0629C119.649 30.0629 120.513 29.9119 121.29 29.6089L121.624 31.0889C120.716 31.4849 119.644 31.6819 118.407 31.6819C116.919 31.6819 115.751 31.2439 114.901 30.3689C114.053 29.4939 113.628 28.3189 113.628 26.8449C113.628 25.3979 114.023 24.1929 114.814 23.2319C115.642 22.2059 116.761 21.6929 118.169 21.6929C119.552 21.6929 120.599 22.2059 121.31 23.2319C121.873 24.0469 122.156 25.0549 122.156 26.2519ZM120.123 25.6989C120.137 25.0669 119.998 24.5209 119.709 24.0599C119.34 23.4669 118.773 23.1709 118.01 23.1709C117.313 23.1709 116.746 23.4599 116.313 24.0399C115.958 24.5009 115.747 25.0539 115.682 25.6979H120.123V25.6989Z" fill="white"/>
<path d="M49.05 10.0089C49.05 11.1859 48.697 12.0719 47.992 12.6669C47.339 13.2159 46.411 13.4909 45.209 13.4909C44.613 13.4909 44.103 13.4649 43.676 13.4129V6.98195C44.233 6.89195 44.833 6.84595 45.481 6.84595C46.626 6.84595 47.489 7.09495 48.071 7.59295C48.723 8.15595 49.05 8.96095 49.05 10.0089ZM47.945 10.0379C47.945 9.27495 47.743 8.68995 47.339 8.28195C46.935 7.87495 46.345 7.67095 45.568 7.67095C45.238 7.67095 44.957 7.69295 44.724 7.73895V12.6279C44.853 12.6479 45.089 12.6569 45.432 12.6569C46.234 12.6569 46.853 12.4339 47.289 11.9879C47.725 11.5419 47.945 10.8919 47.945 10.0379Z" fill="white"/>
<path d="M54.9091 11.0368C54.9091 11.7618 54.7021 12.3558 54.2881 12.8218C53.8541 13.3008 53.2791 13.5398 52.5611 13.5398C51.8691 13.5398 51.3181 13.3108 50.9071 12.8508C50.4971 12.3918 50.2921 11.8128 50.2921 11.1148C50.2921 10.3848 50.5031 9.7858 50.9271 9.3208C51.3511 8.8558 51.9211 8.6228 52.6391 8.6228C53.3311 8.6228 53.8871 8.8518 54.3081 9.3108C54.7081 9.7568 54.9091 10.3328 54.9091 11.0368ZM53.8221 11.0708C53.8221 10.6358 53.7281 10.2628 53.5411 9.9518C53.3211 9.5758 53.0081 9.3878 52.6011 9.3878C52.1801 9.3878 51.8601 9.5758 51.6401 9.9518C51.4521 10.2628 51.3591 10.6418 51.3591 11.0898C51.3591 11.5248 51.4531 11.8978 51.6401 12.2088C51.8671 12.5848 52.1831 12.7728 52.5911 12.7728C52.9911 12.7728 53.3051 12.5818 53.5311 12.1988C53.7251 11.8818 53.8221 11.5058 53.8221 11.0708Z" fill="white"/>
<path d="M62.7651 8.71899L61.2901 13.433H60.3301L59.7191 11.386C59.5641 10.875 59.4381 10.367 59.3401 9.86299H59.3211C59.2301 10.381 59.1041 10.888 58.9421 11.386L58.2931 13.433H57.3221L55.9351 8.71899H57.0121L57.5451 10.96C57.6741 11.49 57.7801 11.995 57.8651 12.473H57.8841C57.9621 12.079 58.0911 11.577 58.2731 10.97L58.9421 8.71999H59.7961L60.4371 10.922C60.5921 11.459 60.7181 11.976 60.8151 12.474H60.8441C60.9151 11.989 61.0221 11.472 61.1641 10.922L61.7361 8.71999H62.7651V8.71899Z" fill="white"/>
<path d="M68.198 13.4329H67.15V10.7329C67.15 9.90087 66.834 9.48487 66.2 9.48487C65.889 9.48487 65.638 9.59887 65.443 9.82787C65.25 10.0569 65.152 10.3269 65.152 10.6359V13.4319H64.104V10.0659C64.104 9.65187 64.091 9.20287 64.066 8.71687H64.987L65.036 9.45387H65.065C65.187 9.22487 65.369 9.03587 65.608 8.88487C65.892 8.70887 66.21 8.61987 66.558 8.61987C66.998 8.61987 67.364 8.76187 67.655 9.04687C68.017 9.39587 68.198 9.91687 68.198 10.6089V13.4329Z" fill="white"/>
<path d="M71.088 13.4329H70.041V6.55591H71.088V13.4329Z" fill="white"/>
<path d="M77.2581 11.0368C77.2581 11.7618 77.0511 12.3558 76.6371 12.8218C76.2031 13.3008 75.6271 13.5398 74.9101 13.5398C74.2171 13.5398 73.6661 13.3108 73.2561 12.8508C72.8461 12.3918 72.6411 11.8128 72.6411 11.1148C72.6411 10.3848 72.8521 9.7858 73.2761 9.3208C73.7001 8.8558 74.2701 8.6228 74.9871 8.6228C75.6801 8.6228 76.2351 8.8518 76.6571 9.3108C77.0571 9.7568 77.2581 10.3328 77.2581 11.0368ZM76.1701 11.0708C76.1701 10.6358 76.0761 10.2628 75.8891 9.9518C75.6701 9.5758 75.3561 9.3878 74.9501 9.3878C74.5281 9.3878 74.2081 9.5758 73.9891 9.9518C73.8011 10.2628 73.7081 10.6418 73.7081 11.0898C73.7081 11.5248 73.8021 11.8978 73.9891 12.2088C74.2161 12.5848 74.5321 12.7728 74.9401 12.7728C75.3401 12.7728 75.6531 12.5818 75.8791 12.1988C76.0741 11.8818 76.1701 11.5058 76.1701 11.0708Z" fill="white"/>
<path d="M82.33 13.4328H81.389L81.311 12.8898H81.282C80.96 13.3228 80.501 13.5398 79.905 13.5398C79.46 13.5398 79.1 13.3968 78.829 13.1128C78.583 12.8548 78.46 12.5338 78.46 12.1528C78.46 11.5768 78.7 11.1378 79.183 10.8338C79.665 10.5298 80.343 10.3808 81.216 10.3878V10.2998C81.216 9.6788 80.89 9.3688 80.237 9.3688C79.772 9.3688 79.362 9.4858 79.008 9.7178L78.795 9.0298C79.233 8.7588 79.774 8.6228 80.412 8.6228C81.644 8.6228 82.262 9.2728 82.262 10.5728V12.3088C82.262 12.7798 82.285 13.1548 82.33 13.4328ZM81.242 11.8128V11.0858C80.086 11.0658 79.508 11.3828 79.508 12.0358C79.508 12.2818 79.574 12.4658 79.709 12.5888C79.844 12.7118 80.016 12.7728 80.221 12.7728C80.451 12.7728 80.666 12.6998 80.862 12.5548C81.059 12.4088 81.18 12.2238 81.225 11.9968C81.236 11.9458 81.242 11.8838 81.242 11.8128Z" fill="white"/>
<path d="M88.285 13.4329H87.355L87.306 12.6759H87.277C86.98 13.2519 86.474 13.5399 85.763 13.5399C85.195 13.5399 84.722 13.3169 84.347 12.8709C83.972 12.4249 83.785 11.8459 83.785 11.1349C83.785 10.3719 83.988 9.75391 84.396 9.28191C84.791 8.84191 85.275 8.62191 85.851 8.62191C86.484 8.62191 86.927 8.83491 87.179 9.26191H87.199V6.55591H88.248V12.1629C88.248 12.6219 88.26 13.0449 88.285 13.4329ZM87.199 11.4449V10.6589C87.199 10.5229 87.189 10.4129 87.17 10.3289C87.111 10.0769 86.984 9.86491 86.791 9.69391C86.596 9.52291 86.361 9.43691 86.09 9.43691C85.699 9.43691 85.393 9.59191 85.168 9.90291C84.945 10.2139 84.832 10.6109 84.832 11.0959C84.832 11.5619 84.939 11.9399 85.154 12.2309C85.381 12.5409 85.687 12.6959 86.07 12.6959C86.414 12.6959 86.689 12.5669 86.898 12.3079C87.1 12.0689 87.199 11.7809 87.199 11.4449Z" fill="white"/>
<path d="M97.248 11.0368C97.248 11.7618 97.041 12.3558 96.627 12.8218C96.193 13.3008 95.619 13.5398 94.9 13.5398C94.209 13.5398 93.658 13.3108 93.246 12.8508C92.836 12.3918 92.631 11.8128 92.631 11.1148C92.631 10.3848 92.842 9.7858 93.266 9.3208C93.69 8.8558 94.26 8.6228 94.979 8.6228C95.67 8.6228 96.227 8.8518 96.647 9.3108C97.047 9.7568 97.248 10.3328 97.248 11.0368ZM96.162 11.0708C96.162 10.6358 96.068 10.2628 95.881 9.9518C95.66 9.5758 95.348 9.3878 94.94 9.3878C94.52 9.3878 94.2 9.5758 93.979 9.9518C93.791 10.2628 93.698 10.6418 93.698 11.0898C93.698 11.5248 93.792 11.8978 93.979 12.2088C94.206 12.5848 94.522 12.7728 94.93 12.7728C95.33 12.7728 95.645 12.5818 95.871 12.1988C96.064 11.8818 96.162 11.5058 96.162 11.0708Z" fill="white"/>
<path d="M102.883 13.4329H101.836V10.7329C101.836 9.90087 101.52 9.48487 100.885 9.48487C100.574 9.48487 100.323 9.59887 100.129 9.82787C99.935 10.0569 99.838 10.3269 99.838 10.6359V13.4319H98.789V10.0659C98.789 9.65187 98.777 9.20287 98.752 8.71687H99.672L99.721 9.45387H99.75C99.873 9.22487 100.055 9.03587 100.293 8.88487C100.578 8.70887 100.895 8.61987 101.244 8.61987C101.683 8.61987 102.049 8.76187 102.34 9.04687C102.703 9.39587 102.883 9.91687 102.883 10.6089V13.4329Z" fill="white"/>
<path d="M109.936 9.50392H108.782V11.7939C108.782 12.3759 108.987 12.6669 109.393 12.6669C109.581 12.6669 109.737 12.6509 109.86 12.6179L109.887 13.4129C109.68 13.4909 109.408 13.5299 109.073 13.5299C108.659 13.5299 108.337 13.4039 108.104 13.1519C107.87 12.8999 107.754 12.4759 107.754 11.8809V9.50392H107.065V8.71892H107.754V7.85492L108.781 7.54492V8.71792H109.935V9.50392H109.936Z" fill="white"/>
<path d="M115.484 13.4329H114.435V10.7529C114.435 9.90791 114.119 9.48491 113.486 9.48491C113 9.48491 112.668 9.72991 112.486 10.2199C112.455 10.3229 112.437 10.4489 112.437 10.5969V13.4319H111.39V6.55591H112.437V9.39691H112.457C112.787 8.87991 113.26 8.62191 113.873 8.62191C114.307 8.62191 114.666 8.76391 114.951 9.04891C115.306 9.40391 115.484 9.93191 115.484 10.6299V13.4329Z" fill="white"/>
<path d="M121.207 10.853C121.207 11.041 121.193 11.199 121.168 11.328H118.025C118.039 11.794 118.189 12.149 118.48 12.395C118.746 12.615 119.089 12.725 119.509 12.725C119.974 12.725 120.398 12.651 120.78 12.502L120.944 13.23C120.497 13.424 119.971 13.521 119.362 13.521C118.632 13.521 118.057 13.306 117.641 12.876C117.223 12.446 117.016 11.869 117.016 11.145C117.016 10.434 117.209 9.84201 117.598 9.37001C118.004 8.86601 118.553 8.61401 119.246 8.61401C119.924 8.61401 120.439 8.86601 120.787 9.37001C121.068 9.77001 121.207 10.265 121.207 10.853ZM120.207 10.582C120.215 10.271 120.146 10.003 120.004 9.77701C119.822 9.48601 119.545 9.34001 119.17 9.34001C118.828 9.34001 118.549 9.48201 118.336 9.76701C118.162 9.99401 118.059 10.265 118.025 10.582H120.207Z" fill="white"/>
<path d="M275 40H150C147.2 40 145 37.8 145 35V5C145 2.2 147.2 0 150 0H275C277.8 0 280 2.2 280 5V35C280 37.7 277.8 40 275 40Z" fill="black"/>
<path d="M275 0.8C277.3 0.8 279.2 2.7 279.2 5V35C279.2 37.3 277.3 39.2 275 39.2H150C147.7 39.2 145.8 37.3 145.8 35V5C145.8 2.7 147.7 0.8 150 0.8H275ZM275 0H150C147.2 0 145 2.2 145 5V35C145 37.8 147.2 40 150 40H275C277.8 40 280 37.8 280 35V5C280 2.3 277.8 0 275 0Z" fill="#A6A6A6"/>
<path d="M192.4 10.1999C192.4 10.9999 192.2 11.6999 191.7 12.1999C191.1 12.7999 190.4 13.0999 189.5 13.0999C188.6 13.0999 187.9 12.7999 187.3 12.1999C186.7 11.5999 186.4 10.8999 186.4 9.9999C186.4 9.0999 186.7 8.3999 187.3 7.7999C187.9 7.1999 188.6 6.8999 189.5 6.8999C189.9 6.8999 190.3 6.9999 190.7 7.1999C191.1 7.3999 191.4 7.5999 191.6 7.8999L191.1 8.3999C190.7 7.8999 190.2 7.6999 189.5 7.6999C188.9 7.6999 188.3 7.8999 187.9 8.3999C187.4 8.7999 187.2 9.3999 187.2 10.0999C187.2 10.7999 187.4 11.3999 187.9 11.7999C188.4 12.1999 188.9 12.4999 189.5 12.4999C190.2 12.4999 190.7 12.2999 191.2 11.7999C191.5 11.4999 191.7 11.0999 191.7 10.5999H189.5V9.8999H192.4C192.4 9.8999 192.4 10.0999 192.4 10.1999Z" fill="white" stroke="white" stroke-width="0.2" stroke-miterlimit="10"/>
<path d="M197 7.7H194.3V9.6H196.8V10.3H194.3V12.2H197V13H193.5V7H197V7.7Z" fill="white" stroke="white" stroke-width="0.2" stroke-miterlimit="10"/>
<path d="M200.3 13H199.5V7.7H197.8V7H202V7.7H200.3V13Z" fill="white" stroke="white" stroke-width="0.2" stroke-miterlimit="10"/>
<path d="M204.9 13V7H205.7V13H204.9Z" fill="white" stroke="white" stroke-width="0.2" stroke-miterlimit="10"/>
<path d="M209.1 13H208.3V7.7H206.6V7H210.7V7.7H209L209.1 13Z" fill="white" stroke="white" stroke-width="0.2" stroke-miterlimit="10"/>
<path d="M218.6 12.1999C218 12.7999 217.3 13.0999 216.4 13.0999C215.5 13.0999 214.8 12.7999 214.2 12.1999C213.6 11.5999 213.3 10.8999 213.3 9.9999C213.3 9.0999 213.6 8.3999 214.2 7.7999C214.8 7.1999 215.5 6.8999 216.4 6.8999C217.3 6.8999 218 7.1999 218.6 7.7999C219.2 8.3999 219.5 9.0999 219.5 9.9999C219.5 10.8999 219.2 11.5999 218.6 12.1999ZM214.8 11.6999C215.2 12.0999 215.8 12.3999 216.4 12.3999C217 12.3999 217.6 12.1999 218 11.6999C218.4 11.2999 218.7 10.6999 218.7 9.9999C218.7 9.2999 218.5 8.6999 218 8.2999C217.6 7.8999 217 7.5999 216.4 7.5999C215.8 7.5999 215.2 7.7999 214.8 8.2999C214.4 8.6999 214.1 9.2999 214.1 9.9999C214.1 10.6999 214.3 11.2999 214.8 11.6999Z" fill="white" stroke="white" stroke-width="0.2" stroke-miterlimit="10"/>
<path d="M220.6 13V7H221.5L224.4 11.7V10.5V7H225.2V13H224.4L221.3 8.1V9.3V13H220.6Z" fill="white" stroke="white" stroke-width="0.2" stroke-miterlimit="10"/>
<path d="M213.1 21.8001C210.7 21.8001 208.8 23.6001 208.8 26.1001C208.8 28.5001 210.7 30.4001 213.1 30.4001C215.5 30.4001 217.4 28.6001 217.4 26.1001C217.4 23.5001 215.5 21.8001 213.1 21.8001ZM213.1 28.6001C211.8 28.6001 210.7 27.5001 210.7 26.0001C210.7 24.5001 211.8 23.4001 213.1 23.4001C214.4 23.4001 215.5 24.4001 215.5 26.0001C215.5 27.5001 214.4 28.6001 213.1 28.6001ZM203.8 21.8001C201.4 21.8001 199.5 23.6001 199.5 26.1001C199.5 28.5001 201.4 30.4001 203.8 30.4001C206.2 30.4001 208.1 28.6001 208.1 26.1001C208.1 23.5001 206.2 21.8001 203.8 21.8001ZM203.8 28.6001C202.5 28.6001 201.4 27.5001 201.4 26.0001C201.4 24.5001 202.5 23.4001 203.8 23.4001C205.1 23.4001 206.2 24.4001 206.2 26.0001C206.2 27.5001 205.1 28.6001 203.8 28.6001ZM192.7 23.1001V24.9001H197C196.9 25.9001 196.5 26.7001 196 27.2001C195.4 27.8001 194.4 28.5001 192.7 28.5001C190 28.5001 188 26.4001 188 23.7001C188 21.0001 190.1 18.9001 192.7 18.9001C194.1 18.9001 195.2 19.5001 196 20.2001L197.3 18.9001C196.2 17.9001 194.8 17.1001 192.8 17.1001C189.2 17.1001 186.1 20.1001 186.1 23.7001C186.1 27.3001 189.2 30.3001 192.8 30.3001C194.8 30.3001 196.2 29.7001 197.4 28.4001C198.6 27.2001 199 25.5001 199 24.2001C199 23.8001 199 23.4001 198.9 23.1001H192.7ZM238.1 24.5001C237.7 23.5001 236.7 21.8001 234.5 21.8001C232.3 21.8001 230.5 23.5001 230.5 26.1001C230.5 28.5001 232.3 30.4001 234.7 30.4001C236.6 30.4001 237.8 29.2001 238.2 28.5001L236.8 27.5001C236.3 28.2001 235.7 28.7001 234.7 28.7001C233.7 28.7001 233.1 28.3001 232.6 27.4001L238.3 25.0001L238.1 24.5001ZM232.3 25.9001C232.3 24.3001 233.6 23.4001 234.5 23.4001C235.2 23.4001 235.9 23.8001 236.1 24.3001L232.3 25.9001ZM227.6 30.0001H229.5V17.5001H227.6V30.0001ZM224.6 22.7001C224.1 22.2001 223.3 21.7001 222.3 21.7001C220.2 21.7001 218.2 23.6001 218.2 26.0001C218.2 28.4001 220.1 30.2001 222.3 30.2001C223.3 30.2001 224.1 29.7001 224.5 29.2001H224.6V29.8001C224.6 31.4001 223.7 32.3001 222.3 32.3001C221.2 32.3001 220.4 31.5001 220.2 30.8001L218.6 31.5001C219.1 32.6001 220.3 34.0001 222.4 34.0001C224.6 34.0001 226.4 32.7001 226.4 29.6001V22.0001H224.6V22.7001ZM222.4 28.6001C221.1 28.6001 220 27.5001 220 26.0001C220 24.5001 221.1 23.4001 222.4 23.4001C223.7 23.4001 224.7 24.5001 224.7 26.0001C224.7 27.5001 223.7 28.6001 222.4 28.6001ZM246.8 17.5001H242.3V30.0001H244.2V25.3001H246.8C248.9 25.3001 250.9 23.8001 250.9 21.4001C250.9 19.0001 248.9 17.5001 246.8 17.5001ZM246.9 23.5001H244.2V19.2001H246.9C248.3 19.2001 249.1 20.4001 249.1 21.3001C249 22.4001 248.2 23.5001 246.9 23.5001ZM258.4 21.7001C257 21.7001 255.6 22.3001 255.1 23.6001L256.8 24.3001C257.2 23.6001 257.8 23.4001 258.5 23.4001C259.5 23.4001 260.4 24.0001 260.5 25.0001V25.1001C260.2 24.9001 259.4 24.6001 258.6 24.6001C256.8 24.6001 255 25.6001 255 27.4001C255 29.1001 256.5 30.2001 258.1 30.2001C259.4 30.2001 260 29.6001 260.5 29.0001H260.6V30.0001H262.4V25.2001C262.2 23.0001 260.5 21.7001 258.4 21.7001ZM258.2 28.6001C257.6 28.6001 256.7 28.3001 256.7 27.5001C256.7 26.5001 257.8 26.2001 258.7 26.2001C259.5 26.2001 259.9 26.4001 260.4 26.6001C260.2 27.8001 259.2 28.6001 258.2 28.6001ZM268.7 22.0001L266.6 27.4001H266.5L264.3 22.0001H262.3L265.6 29.6001L263.7 33.8001H265.6L270.7 22.0001H268.7ZM251.9 30.0001H253.8V17.5001H251.9V30.0001Z" fill="white"/>
<path d="M155.4 7.5C155.1 7.8 154.9 8.3 154.9 8.9V31C154.9 31.6 155.1 32.1 155.4 32.4L155.5 32.5L167.9 20.1V20V19.9L155.4 7.5Z" fill="url(#paint0_linear_19:62)"/>
<path d="M172 24.2998L167.9 20.1998V19.9998V19.8998L172 15.7998L172.1 15.8998L177 18.6998C178.4 19.4998 178.4 20.7998 177 21.5998L172 24.2998Z" fill="url(#paint1_linear_19:62)"/>
<path d="M172.1 24.2L167.9 20L155.4 32.5C155.9 33 156.6 33 157.5 32.6L172.1 24.2Z" fill="url(#paint2_linear_19:62)"/>
<path d="M172.1 15.7999L157.5 7.49987C156.6 6.99987 155.9 7.09987 155.4 7.59987L167.9 19.9999L172.1 15.7999Z" fill="url(#paint3_linear_19:62)"/>
<path opacity="0.2" d="M172 24.0999L157.5 32.2999C156.7 32.7999 156 32.6999 155.5 32.2999L155.4 32.3999L155.5 32.4999C156 32.8999 156.7 32.9999 157.5 32.4999L172 24.0999Z" fill="black"/>
<path opacity="0.12" d="M155.4 32.2999C155.1 31.9999 155 31.4999 155 30.8999V30.9999C155 31.5999 155.2 32.0999 155.5 32.3999V32.2999H155.4Z" fill="black"/>
<path opacity="0.12" d="M177 21.3L172 24.1L172.1 24.2L177 21.3C177.7 21 178 20.5 178 20C178 20.5 177.6 20.9 177 21.3Z" fill="black"/>
<path opacity="0.25" d="M157.5 7.59988L177 18.6999C177.6 19.0999 178 19.4999 178 19.9999C178 19.4999 177.7 18.9999 177 18.5999L157.5 7.49988C156.1 6.69988 155 7.39988 155 8.99988V9.09988C155 7.49988 156.1 6.79988 157.5 7.59988Z" fill="white"/>
<defs>
<linearGradient id="paint0_linear_19:62" x1="166.77" y1="8.68" x2="149.988" y2="25.4624" gradientUnits="userSpaceOnUse">
<stop stop-color="#00A0FF"/>
<stop offset="0.00657445" stop-color="#00A1FF"/>
<stop offset="0.2601" stop-color="#00BEFF"/>
<stop offset="0.5122" stop-color="#00D2FF"/>
<stop offset="0.7604" stop-color="#00DFFF"/>
<stop offset="1" stop-color="#00E3FF"/>
</linearGradient>
<linearGradient id="paint1_linear_19:62" x1="178.834" y1="20.0498" x2="154.638" y2="20.0498" gradientUnits="userSpaceOnUse">
<stop stop-color="#FFE000"/>
<stop offset="0.4087" stop-color="#FFBD00"/>
<stop offset="0.7754" stop-color="#FFA500"/>
<stop offset="1" stop-color="#FF9C00"/>
</linearGradient>
<linearGradient id="paint2_linear_19:62" x1="169.816" y1="22.2845" x2="147.057" y2="45.0428" gradientUnits="userSpaceOnUse">
<stop stop-color="#FF3A44"/>
<stop offset="1" stop-color="#C31162"/>
</linearGradient>
<linearGradient id="paint3_linear_19:62" x1="152.262" y1="0.211667" x2="162.424" y2="10.3742" gradientUnits="userSpaceOnUse">
<stop stop-color="#32A071"/>
<stop offset="0.0685" stop-color="#2DA771"/>
<stop offset="0.4762" stop-color="#15CF74"/>
<stop offset="0.8009" stop-color="#06E775"/>
<stop offset="1" stop-color="#00F076"/>
</linearGradient>
</defs>
</svg>
