<svg width="51" height="51" viewBox="0 0 51 51" fill="none" xmlns="http://www.w3.org/2000/svg">
<path d="M50.014 25C50.0154 29.9462 48.5499 34.7817 45.803 38.8951C43.056 43.0084 39.1509 46.2146 34.5816 48.1084C30.0123 50.0022 24.984 50.4985 20.1327 49.5344C15.2813 48.5702 10.8249 46.1891 7.32687 42.6921C3.82888 39.1951 1.44649 34.7393 0.481026 29.8882C-0.484442 25.0371 0.010371 20.0087 1.90289 15.4389C3.7954 10.869 7.00061 6.96304 11.1131 4.21493C15.2257 1.46681 20.0608 1.17387e-06 25.007 9.8009e-07C28.2906 -0.000918438 31.5423 0.645047 34.5762 1.901C37.6102 3.15696 40.367 4.9983 42.6892 7.31986C45.0114 9.64141 46.8535 12.3977 48.1103 15.4313C49.3671 18.4649 50.014 21.7164 50.014 25Z" fill="#242424"/>
<path d="M22.5951 36.7657V26.8917H19.2061V22.3347H22.5951V19.1517C22.5951 15.6857 24.7901 13.9797 27.8821 13.9797C28.9262 13.9761 29.9697 14.0295 31.0081 14.1397V17.7627H28.8631C27.1811 17.7627 26.8011 18.5627 26.8011 19.7347V22.3347H31.3581L29.8391 26.8917H26.8061V36.7657H22.5951Z" fill="white"/>
</svg>
