<svg width="51" height="51" viewBox="0 0 51 51" fill="none" xmlns="http://www.w3.org/2000/svg">
<path d="M50.014 25C50.0154 29.9462 48.5499 34.7817 45.803 38.8951C43.056 43.0084 39.1509 46.2146 34.5816 48.1084C30.0123 50.0022 24.984 50.4985 20.1327 49.5344C15.2813 48.5702 10.8249 46.1891 7.32687 42.6921C3.82888 39.1951 1.44649 34.7393 0.481026 29.8882C-0.484442 25.0371 0.010371 20.0087 1.90289 15.4389C3.7954 10.869 7.00061 6.96304 11.1131 4.21493C15.2257 1.46681 20.0608 1.17387e-06 25.007 9.8009e-07C28.2906 -0.000918438 31.5423 0.645047 34.5762 1.901C37.6102 3.15696 40.367 4.9983 42.6892 7.31986C45.0114 9.64141 46.8535 12.3977 48.1103 15.4313C49.3671 18.4649 50.014 21.7164 50.014 25Z" fill="#242424"/>
<path d="M25.2049 14.9476C28.3779 14.9476 28.7549 14.9596 30.0049 15.0166C31.3192 14.9722 32.5996 15.438 33.5779 16.3166C34.4565 17.295 34.9224 18.5754 34.8779 19.8896C34.9349 21.1426 34.9469 21.5186 34.9469 24.6896C34.9469 27.8606 34.9349 28.2396 34.8779 29.4896C34.9224 30.8039 34.4565 32.0843 33.5779 33.0626C32.5996 33.9412 31.3192 34.4071 30.0049 34.3626C28.7519 34.4196 28.3759 34.4316 25.2049 34.4316C22.0339 34.4316 21.6549 34.4196 20.4049 34.3626C19.0907 34.4071 17.8103 33.9412 16.8319 33.0626C15.9534 32.0843 15.4875 30.8039 15.5319 29.4896C15.4749 28.2366 15.4629 27.8606 15.4629 24.6896C15.4629 21.5186 15.4749 21.1396 15.5319 19.8896C15.4875 18.5754 15.9534 17.295 16.8319 16.3166C17.8103 15.438 19.0907 14.9722 20.4049 15.0166C21.6579 14.9596 22.0339 14.9476 25.2049 14.9476ZM25.2049 12.8066C21.9769 12.8066 21.5719 12.8206 20.3049 12.8776C18.4546 12.8438 16.6641 13.5338 15.3149 14.8006C14.0477 16.1496 13.3574 17.9401 13.3909 19.7906C13.3339 21.0586 13.3199 21.4636 13.3199 24.6916C13.3199 27.9196 13.3339 28.3246 13.3909 29.5916C13.3571 31.442 14.0471 33.2325 15.3139 34.5816C16.6628 35.8492 18.4533 36.54 20.3039 36.5066C21.5719 36.5636 21.9769 36.5776 25.2039 36.5776C28.4309 36.5776 28.8369 36.5636 30.1039 36.5066C31.9543 36.5405 33.7448 35.8505 35.0939 34.5836C36.3608 33.2345 37.0508 31.444 37.0169 29.5936C37.0739 28.3256 37.0879 27.9206 37.0879 24.6936C37.0879 21.4666 37.0739 21.0606 37.0169 19.7936C37.0508 17.9433 36.3608 16.1528 35.0939 14.8036C33.7458 13.5362 31.9561 12.8451 30.1059 12.8776C28.8379 12.8206 28.4329 12.8066 25.2049 12.8066V12.8066Z" fill="white"/>
<path d="M25.205 18.5889C23.9985 18.5889 22.8191 18.9466 21.816 19.6169C20.8129 20.2872 20.031 21.2399 19.5693 22.3545C19.1076 23.4691 18.9868 24.6956 19.2222 25.8789C19.4576 27.0622 20.0385 28.1491 20.8916 29.0022C21.7447 29.8553 22.8316 30.4363 24.0149 30.6717C25.1982 30.907 26.4247 30.7862 27.5394 30.3245C28.654 29.8628 29.6067 29.081 30.2769 28.0778C30.9472 27.0747 31.305 25.8953 31.305 24.6889C31.305 23.8878 31.1472 23.0946 30.8406 22.3545C30.5341 21.6144 30.0848 20.942 29.5183 20.3755C28.9519 19.8091 28.2794 19.3598 27.5394 19.0532C26.7993 18.7466 26.006 18.5889 25.205 18.5889ZM25.205 28.6539C24.4212 28.6545 23.6549 28.4226 23.003 27.9876C22.3511 27.5526 21.8428 26.934 21.5424 26.2101C21.2421 25.4862 21.1632 24.6895 21.3157 23.9208C21.4683 23.152 21.8454 22.4458 22.3994 21.8914C22.9533 21.337 23.6593 20.9593 24.4279 20.8062C25.1966 20.6531 25.9933 20.7314 26.7175 21.0312C27.4416 21.331 28.0606 21.8388 28.4961 22.4904C28.9315 23.142 29.164 23.9081 29.164 24.6919C29.1632 25.7416 28.7458 26.7481 28.0035 27.4904C27.2613 28.2327 26.2547 28.6501 25.205 28.6509V28.6539Z" fill="white"/>
<path d="M31.549 19.7729C32.3366 19.7729 32.975 19.1345 32.975 18.3469C32.975 17.5593 32.3366 16.9209 31.549 16.9209C30.7615 16.9209 30.123 17.5593 30.123 18.3469C30.123 19.1345 30.7615 19.7729 31.549 19.7729Z" fill="white"/>
</svg>
