<svg width="38" height="33" viewBox="0 0 38 33" fill="none" xmlns="http://www.w3.org/2000/svg">
<path fill-rule="evenodd" clip-rule="evenodd" d="M1.70445 0.859718H7.5592C8.49858 0.859718 9.2632 1.62433 9.2632 2.56371V31.2258C9.2632 32.1651 8.49858 32.9298 7.5592 32.9298H1.70445C0.76507 32.9298 0.000456719 32.1651 0.000456719 31.2258V2.58556C-0.0213894 1.62433 0.743224 0.859718 1.70445 0.859718ZM23.1573 1.49326L28.8591 0.335412C29.7767 0.138798 30.6942 0.750487 30.9127 1.66802L37.1606 29.7402C37.3572 30.6578 36.7892 31.5753 35.8717 31.7501L30.1699 32.9079C29.2524 33.1045 28.3348 32.4928 28.1164 31.5753L21.8684 3.50309C21.6499 2.58556 22.2398 1.68987 23.1573 1.49326ZM24.053 5.55662L29.7548 4.39878L30.2136 6.49601L24.5118 7.65385L24.053 5.55662ZM24.7958 8.83353L30.4976 7.6757L30.7379 8.7243L25.0361 9.88215L24.7958 8.83353ZM29.0339 27.927L34.7357 26.7692L35.2163 28.9538L29.5145 30.1116L29.0339 27.927ZM12.7804 0.859718H18.6352C19.5745 0.859718 20.3392 1.62433 20.3392 2.56371V31.2258C20.3392 32.1651 19.5745 32.9298 18.6352 32.9298H12.7804C11.841 32.9298 11.0764 32.1651 11.0764 31.2258V2.58556C11.0764 1.62433 11.841 0.859718 12.7804 0.859718ZM12.7804 4.98863H18.6352V7.12954H12.7804V4.98863ZM12.7804 8.35292H18.6352V9.42338H12.7804V8.35292ZM12.7804 27.8178H18.6352V30.0461H12.7804V27.8178ZM1.70445 4.98863H7.5592V7.12954H1.70445V4.98863ZM1.70445 8.35292H7.5592V9.42338H1.70445V8.35292ZM1.70445 27.8178H7.5592V30.0461H1.70445V27.8178Z" fill="#BA3FCA"/>
</svg>
