<svg width="51" height="51" viewBox="0 0 51 51" fill="none" xmlns="http://www.w3.org/2000/svg">
<path d="M50.014 25C50.0154 29.9462 48.5499 34.7817 45.803 38.8951C43.056 43.0084 39.1509 46.2146 34.5816 48.1084C30.0123 50.0022 24.984 50.4985 20.1327 49.5344C15.2813 48.5702 10.8249 46.1891 7.32687 42.6921C3.82888 39.1951 1.44649 34.7393 0.481026 29.8882C-0.484442 25.0371 0.010371 20.0087 1.90289 15.4389C3.7954 10.869 7.00061 6.96304 11.1131 4.21493C15.2257 1.46681 20.0608 1.17387e-06 25.007 9.8009e-07C28.2906 -0.000918438 31.5423 0.645047 34.5762 1.901C37.6102 3.15696 40.367 4.9983 42.6892 7.31986C45.0114 9.64141 46.8535 12.3977 48.1103 15.4313C49.3671 18.4649 50.014 21.7164 50.014 25Z" fill="#242424"/>
<path d="M37.036 18.0769C36.211 18.4923 35.386 18.6308 34.4235 18.7692C35.386 18.2154 36.0735 17.3846 36.3485 16.2769C35.5235 16.8308 34.561 17.1077 33.461 17.3846C32.636 16.5538 31.3985 16 30.161 16C27.8235 16 25.761 18.0769 25.761 20.5692C25.761 20.9846 25.761 21.2615 25.8985 21.5385C22.186 21.4 18.7485 19.6 16.5485 16.8308C16.136 17.5231 15.9985 18.2154 15.9985 19.1846C15.9985 20.7077 16.8235 22.0923 18.061 22.9231C17.3735 22.9231 16.686 22.6462 15.9985 22.3692C15.9985 24.5846 17.511 26.3846 19.5735 26.8C19.161 26.9385 18.7485 26.9385 18.336 26.9385C18.061 26.9385 17.786 26.9385 17.511 26.8C18.061 28.6 19.711 29.9846 21.7735 29.9846C20.261 31.2308 18.336 31.9231 16.136 31.9231C15.7235 31.9231 15.4485 31.9231 15.036 31.9231C17.0985 33.1692 19.436 34 21.911 34C30.161 34 34.6985 27.0769 34.6985 21.1231C34.6985 20.9846 34.6985 20.7077 34.6985 20.5692C35.661 19.8769 36.486 19.0462 37.036 18.0769Z" fill="white"/>
</svg>
